<svg width="32" height="32" viewBox="0 0 32 32" fill="none" xmlns="http://www.w3.org/2000/svg">
  <rect width="32" height="32" rx="6" fill="#4A5D4E"/>
  <path d="M16 8C16 8 12 10 12 14C12 16 13 17 14 18C13 19 12 20 12 22C12 24 14 26 16 26C18 26 20 24 20 22C20 20 19 19 18 18C19 17 20 16 20 14C20 10 16 8 16 8Z" fill="#A8D5BA" stroke="#FFFFFF" stroke-width="1.5" stroke-linecap="round" stroke-linejoin="round"/>
  <circle cx="16" cy="14" r="1.5" fill="#FFFFFF"/>
  <path d="M16 18V22" stroke="#FFFFFF" stroke-width="1.5" stroke-linecap="round"/>
</svg>
